<svg width="46" height="60" fill="none" xmlns="http://www.w3.org/2000/svg"><path d="M30.375 24.151a.616.616 0 00.625-.605v-3.94c0-1.337-1.122-2.424-2.5-2.424h-.949a.624.624 0 01-.591-.411l-.19-.539A1.87 1.87 0 0024.995 15h-3.992c-.788 0-1.497.482-1.764 1.2l-.216.582a.628.628 0 01-.588.4H17.5c-1.378 0-2.5 1.087-2.5 2.424v6.97C15 27.913 16.122 29 17.5 29h11c1.378 0 2.5-1.087 2.5-2.424a.616.616 0 00-.625-.606.616.616 0 00-.625.606c0 .668-.56 1.212-1.25 1.212h-11c-.69 0-1.25-.544-1.25-1.212v-6.97c0-.668.56-1.212 1.25-1.212h.935c.787 0 1.496-.483 1.763-1.2l.217-.582a.626.626 0 01.588-.4h3.992c.268 0 .506.165.592.41l.19.54a1.871 1.871 0 001.774 1.232h.949c.69 0 1.25.544 1.25 1.212v3.94c0 .334.28.605.625.605z" fill="#2C303C"/><path d="M23.031 19c-2.154 0-3.906 1.7-3.906 3.788s1.752 3.788 3.906 3.788 3.907-1.7 3.907-3.788c0-2.089-1.753-3.788-3.907-3.788zm0 6.364c-1.464 0-2.656-1.156-2.656-2.576 0-1.42 1.192-2.576 2.656-2.576 1.465 0 2.657 1.156 2.657 2.576 0 1.42-1.192 2.576-2.657 2.576z" fill="#2C303C"/><path d="M23 0C10.318 0 0 10.252 0 22.852A22.55 22.55 0 004.588 36.55l16.994 22.74c.043.055.108.076.155.126.849.903 2.075.676 2.68-.126 4.893-6.487 13.863-18.603 17.312-23.174l.002-.006.022-.028A22.589 22.589 0 0046 22.852C46 10.252 35.682 0 23 0zm0 35.18c-6.828 0-12.408-5.544-12.408-12.328S16.172 10.523 23 10.523c6.828 0 12.408 5.545 12.408 12.329 0 6.784-5.58 12.328-12.408 12.328z" fill="#2C303C"/></svg>