<svg width="64" height="64" fill="none" xmlns="http://www.w3.org/2000/svg"><path d="M63.882 15.168a3.2 3.2 0 00-1.493-1.94 3.2 3.2 0 00-4.372 1.172l-.534.928a1.066 1.066 0 00-1.45.385l-2.709 4.618-.928-.534a1.068 1.068 0 00-1.46.395c-.29.51-.114 1.158.394 1.45l.928.534-9.065 15.712-2.24 5.984-1.067 1.995a3.2 3.2 0 00.171 3.456l-2.4 2.944-.671-1.685a2.132 2.132 0 00-3.808-.3l-.384.651-.362-4.266a2.134 2.134 0 00-4.149-.501l-2.623 7.872a1.067 1.067 0 00.671 1.344.925.925 0 00.331.085c.458.001.867-.291 1.014-.725l2.612-7.872.373 4.33a2.133 2.133 0 003.957.918l.395-.651.661 1.675a2.133 2.133 0 003.647.543l2.485-3.146c.275.072.559.108.843.107a3.2 3.2 0 002.783-1.58l1.067-1.78 4.063-4.94 9.161-15.903.928.533a1.066 1.066 0 01.395 1.462L56.78 35.83a1.065 1.065 0 00.341 1.503 1.065 1.065 0 001.461-.394l4.266-7.392a3.199 3.199 0 00-1.173-4.374l-.928-.533 2.666-4.619a1.067 1.067 0 00-.384-1.45l.534-.928a3.2 3.2 0 00.32-2.475zm-4.02.299a1.06 1.06 0 01.65-.501 1.12 1.12 0 01.81.106c.248.142.428.376.502.65.068.275.03.565-.106.811l-.534.928-1.856-1.066.534-.928zM45.326 45.248l-2.112-1.227 1.514-4.053 3.36 1.941-2.762 3.34zm-3.2 3.083a1.066 1.066 0 01-.32-1.398l.534-.927 1.855 1.066-.533.918a1.066 1.066 0 01-1.536.34zm7.178-8.17l-3.69-2.134 8.531-14.784 3.69 2.133-8.531 14.784zm9.598-16.63l-3.69-2.134 2.133-3.69 3.69 2.133-2.133 3.69zM16.829 47.797l-3.775 3.766-2.261-2.261a1.066 1.066 0 10-1.504 1.514l2.261 2.262c.4.396.94.619 1.504.618a2.133 2.133 0 001.514-.618l3.765-3.776a1.067 1.067 0 00-1.504-1.505z" fill="#D31218"/><path d="M4.266 50.667a9.066 9.066 0 1018.13 0 1.067 1.067 0 10-2.133 0 6.933 6.933 0 11-13.864 0 6.933 6.933 0 016.932-6.934 6.871 6.871 0 014.16 1.387 1.066 1.066 0 101.28-1.706 9.065 9.065 0 00-14.505 7.253zM38.393 8.533a1.066 1.066 0 100-2.133H10.665c-.59 0-1.067.478-1.067 1.067v4.266c0 .59.478 1.067 1.067 1.067h27.728a1.066 1.066 0 100-2.133H11.731V8.533h26.662zm-24.529 6.4a1.067 1.067 0 000 2.134h21.33a1.066 1.066 0 100-2.134h-21.33zM41.593 22.4H18.13a1.067 1.067 0 000 2.133h23.463a1.066 1.066 0 100-2.133zm-10.665 7.467c0-.59-.477-1.067-1.066-1.067H8.532a1.067 1.067 0 000 2.133h21.33c.589 0 1.066-.477 1.066-1.066zM41.593 28.8h-7.466a1.067 1.067 0 000 2.133h7.466a1.066 1.066 0 100-2.133zm-22.396 7.467a1.066 1.066 0 100-2.134H8.532a1.067 1.067 0 000 2.134h10.665zm4.266 0h7.465a1.066 1.066 0 100-2.134h-7.465a1.067 1.067 0 000 2.134z" fill="#D31218"/><path d="M47.992 49.067c-.59 0-1.067.477-1.067 1.066V60.8c0 .59-.477 1.067-1.066 1.067H3.199A1.066 1.066 0 012.133 60.8V3.2c0-.59.477-1.067 1.066-1.067h42.66c.589 0 1.066.478 1.066 1.067v20.032a1.067 1.067 0 102.133 0V3.2a3.2 3.2 0 00-3.2-3.2H3.2A3.2 3.2 0 000 3.2v57.6A3.2 3.2 0 003.2 64h42.659a3.2 3.2 0 003.2-3.2V50.133c0-.589-.478-1.066-1.067-1.066z" fill="#D31218"/></svg>