<svg width="64" height="64" fill="none" xmlns="http://www.w3.org/2000/svg"><path d="M28.208 30.044l-2.928 1.954H22.4a1.066 1.066 0 100 2.133h3.2c.21 0 .417-.062.592-.179l3.2-2.133a1.067 1.067 0 00-1.184-1.775z" fill="#D31218"/><path d="M62.438 51.878a1.067 1.067 0 00-1.508 1.508 3.202 3.202 0 010 4.526l-3.017 3.018a3.207 3.207 0 01-4.526 0l-2.263-2.264 8.297-8.297a1.067 1.067 0 000-1.508l-6.034-6.035a5.307 5.307 0 00-5.714-1.188l-6.72-6.72a22.523 22.523 0 001.956-3.52 1.066 1.066 0 10-1.954-.854A20.055 20.055 0 0119.2 42.387v-2.155a17.965 17.965 0 0017.695-6.967 1.067 1.067 0 00-1.706-1.28A15.856 15.856 0 0122.4 38.398a16.007 16.007 0 01-3.2-.32v-8.214h3.2a1.079 1.079 0 00.755-.313l4.267-4.267c.2-.2.311-.47.312-.753V13.864h-.01a1.038 1.038 0 00-1.057-1.067H16c-.283 0-.554.112-.754.312l-4.267 4.267a1.067 1.067 0 00.754 1.821h9.6v8.534H19.2v-2.134a1.067 1.067 0 00-2.133 0v2.134H12.8v-5.334a1.067 1.067 0 00-2.133 0v6.4a1.066 1.066 0 001.066 1.067h5.334v7.601a15.986 15.986 0 1118.492-24.122 1.067 1.067 0 101.758-1.21 18.121 18.121 0 10-20.25 27.596v2.2a20.254 20.254 0 1121.667-31.493 1.067 1.067 0 101.722-1.26A22.384 22.384 0 107.624 39.213a22.384 22.384 0 009.443 4.916V57.6H16a1.067 1.067 0 000 2.133h2.134a1.067 1.067 0 001.066-1.067V44.543c5.506.852 11.13-.43 15.722-3.584l6.72 6.72a5.334 5.334 0 001.185 5.707l9.052 9.052a5.34 5.34 0 007.542 0l3.017-3.018a5.334 5.334 0 000-7.542zM23.467 26.223v-7.651l2.133-2.133v7.65l-2.133 2.134zM16.442 14.93h7.65l-2.133 2.134h-7.65l2.133-2.134zm40.717 34.685l-7.542 7.543-1.51-1.51 7.543-7.541 1.509 1.508zm-17.494-12.97l6.18 6.181-3.016 3.017-6.187-6.187a22.334 22.334 0 003.022-3.01h.001zm4.671 10.707l3.02-3.017a3.277 3.277 0 014.524 0l2.263 2.263-7.543 7.543-2.264-2.263a3.206 3.206 0 010-4.526z" fill="#D31218"/><path d="M12.267 57.6h-.534v-.28a7.467 7.467 0 10-8.533 0v.28h-.533a1.067 1.067 0 000 2.133H3.2a4.267 4.267 0 008.533 0h.534a1.066 1.066 0 100-2.133zM4.8 55.814a5.334 5.334 0 115.333 0 1.066 1.066 0 00-.533.923v.863H8.533v-3.826l1.821-1.82a1.067 1.067 0 00-1.508-1.509l-1.38 1.38-1.378-1.38a1.067 1.067 0 00-1.509 1.508L6.4 53.774V57.6H5.333v-.863a1.066 1.066 0 00-.533-.923zm2.667 6.053a2.133 2.133 0 01-2.134-2.134H9.6a2.133 2.133 0 01-2.133 2.134zm26.667-12.801H25.6a1.067 1.067 0 00-1.066 1.066V54.4a1.067 1.067 0 001.066 1.067h8.534A1.067 1.067 0 0035.2 54.4v-4.267a1.067 1.067 0 00-1.066-1.066zm-1.067 4.267h-6.4v-2.134h6.4v2.134zM30.934 57.6H25.6a1.067 1.067 0 000 2.133h5.334a1.067 1.067 0 000-2.133zm1.493-36.77a1.067 1.067 0 00-.32.572l-1.51 7.543a1.068 1.068 0 001.255 1.256l7.544-1.51c.22-.044.42-.156.572-.32l12.94-13.974a1.066 1.066 0 10-1.566-1.45L39.157 26.11l-1.48-1.48 1.508-1.508a1.067 1.067 0 00-1.508-1.509l-1.508 1.509-1.478-1.48L53.487 4.235l3.094 3.094-2.337 2.48a1.067 1.067 0 101.564 1.45l2.986-3.227.754-.756a4.267 4.267 0 000-6.033 4.366 4.366 0 00-6.033 0l-.731.732-20.358 18.854zm1.38 2.946l3.215 3.215-4.019.804.804-4.02zM58.042 2.754a2.133 2.133 0 010 3.017l-3.016-3.017a2.183 2.183 0 013.016 0z" fill="#D31218"/></svg>