<svg width="53" height="64" fill="none" xmlns="http://www.w3.org/2000/svg"><path d="M51.066 64V48.403l1.826-6.862a3.207 3.207 0 00-1.148-3.37 3.187 3.187 0 00-3.544-.218l-2.154 1.26a11.69 11.69 0 00-2.336-1.286l-8.106-3.25a11.622 11.622 0 002.434-5.086l2.753-1.38a3.177 3.177 0 001.765-2.863v-.815a3.208 3.208 0 00-.936-2.261 3.191 3.191 0 00-2.256-.939H38.3v-2.33a3.186 3.186 0 000-6.007v-1.263a9.623 9.623 0 00-2.808-6.785 9.573 9.573 0 00-6.767-2.815h-.196a3.167 3.167 0 00-5.991 0h-.196a9.573 9.573 0 00-6.768 2.815 9.623 9.623 0 00-2.807 6.785v1.264a3.187 3.187 0 000 6.007v2.33h-1.064a3.191 3.191 0 00-2.256.938 3.208 3.208 0 00-.936 2.261v.815a3.19 3.19 0 001.764 2.862l2.754 1.38a11.62 11.62 0 002.434 5.086l-8.106 3.252a11.652 11.652 0 00-5.354 4.31A11.698 11.698 0 000 48.821V64h51.066zm-38.3-8.533H24.47V57.6H12.767v-2.133zM30.413 57.6h-3.815v-2.133h5.943L30.412 57.6zm-17.645 2.133H24.47v2.134H12.767v-2.134zm13.83 0h2.277a3.128 3.128 0 00.082 2.134h-2.359v-2.134zm4.256.938a1.191 1.191 0 01.349-.846l4.218-4.229a1.064 1.064 0 011.504 0l.183.184a1.066 1.066 0 010 1.507l-4.218 4.23a1.193 1.193 0 01-2.036-.846zm10.335-7.658c.426.208.893.318 1.367.32h4.75a3.163 3.163 0 001.634-.462V57.6h-9.586a3.068 3.068 0 00-.19-2.557l2.025-2.03zm-5.64 8.854l2.128-2.134H48.94v2.134H35.55zm13.724-22.072c.161-.098.345-.15.533-.152a1.1 1.1 0 011.014.727c.069.2.075.417.018.621L48.972 48h-.033v.127l-.607 2.28a1.068 1.068 0 01-1.028.793h-4.748a1.064 1.064 0 01-1.064-1.067V44.96a1.073 1.073 0 01.527-.922l7.253-4.242zm-5.288.624l-3.037 1.776a3.206 3.206 0 00-1.583 2.764v5.174c.002.476.112.944.32 1.371l-2.026 2.032a3.186 3.186 0 00-2.55-.19v-.013h-8.51V50.72a18.235 18.235 0 005.865-5.987 18.29 18.29 0 002.574-7.986l7.882 3.16c.365.149.72.32 1.065.512zM31.676 41.6H19.391a16.224 16.224 0 01-1.19-4.48l.478.305a12.787 12.787 0 0013.707 0l.48-.305a16.223 16.223 0 01-1.19 4.48zm-1.098 2.133a16.215 16.215 0 01-5.045 5.141 16.218 16.218 0 01-5.044-5.14h10.088zm8.786-20.266a1.064 1.064 0 011.064 1.066v.815a1.063 1.063 0 01-.588.954l-1.54.772v-3.607h1.064zm-17.022-19.2V9.6h2.127V3.2a1.068 1.068 0 011.064-1.067A1.062 1.062 0 0126.597 3.2v6.4h2.128V4.267a7.446 7.446 0 015.263 2.19 7.485 7.485 0 012.184 5.276V12.8H14.895v-1.067a7.485 7.485 0 012.183-5.277 7.446 7.446 0 015.264-2.19zM13.83 14.933h23.405A1.062 1.062 0 0138.3 16a1.068 1.068 0 01-1.064 1.067H13.831A1.063 1.063 0 0112.767 16a1.068 1.068 0 011.064-1.067zm-3.192 10.415v-.815a1.07 1.07 0 011.064-1.066h1.064v3.607l-1.54-.772a1.058 1.058 0 01-.588-.954zm4.256-6.148h21.277v8.012a9.573 9.573 0 01-1.175 4.622 9.545 9.545 0 01-3.258 3.476l-.495.314a10.654 10.654 0 01-11.423 0l-.492-.314a9.544 9.544 0 01-3.259-3.476 9.574 9.574 0 01-1.175-4.622V19.2zM8.146 39.908l7.884-3.161a18.29 18.29 0 002.574 7.986 18.235 18.235 0 005.865 5.987v2.613H12.767v-1.066a9.624 9.624 0 00-2.423-6.372 9.576 9.576 0 00-6.03-3.156 9.549 9.549 0 013.832-2.83zm-6.018 8.914A9.63 9.63 0 013.01 44.8h.18a7.446 7.446 0 015.264 2.19 7.485 7.485 0 012.184 5.277v9.6h-8.51V48.822z" fill="#D31218"/></svg>