<svg width="86" height="100" fill="none" xmlns="http://www.w3.org/2000/svg"><g filter="url(#filter0_d)"><path d="M43 0C30.318 0 20 10.252 20 22.852a22.55 22.55 0 004.588 13.699l16.994 22.74c.043.055.108.076.155.126.849.903 2.075.676 2.68-.126 4.893-6.487 13.863-18.603 17.312-23.174l.002-.006.022-.028A22.589 22.589 0 0066 22.852C66 10.252 55.682 0 43 0zm0 35.18c-6.828 0-12.408-5.544-12.408-12.328S36.172 10.523 43 10.523c6.828 0 12.408 5.545 12.408 12.329 0 6.784-5.58 12.328-12.408 12.328z" fill="#2C303C"/></g><defs><filter id="filter0_d" x="0" y="0" width="86" height="100" filterUnits="userSpaceOnUse" color-interpolation-filters="sRGB"><feFlood flood-opacity="0" result="BackgroundImageFix"/><feColorMatrix in="SourceAlpha" values="0 0 0 0 0 0 0 0 0 0 0 0 0 0 0 0 0 0 127 0"/><feOffset dy="20"/><feGaussianBlur stdDeviation="10"/><feColorMatrix values="0 0 0 0 0.0551215 0 0 0 0 0.104167 0 0 0 0 0.0958539 0 0 0 0.15 0"/><feBlend in2="BackgroundImageFix" result="effect1_dropShadow"/><feBlend in="SourceGraphic" in2="effect1_dropShadow" result="shape"/></filter></defs></svg>